<svg id="Layer_1" data-name="Layer 1" xmlns="http://www.w3.org/2000/svg" viewBox="0 0 199.64 47.74"><defs><style>.cls-1{fill:none;}.cls-2{fill:#18223f;}.cls-3{fill:#fff;}.cls-4{fill:#d80e29;}</style></defs><path class="cls-1" d="M47.74,23.87A23.87,23.87,0,1,1,23.87,0,23.87,23.87,0,0,1,47.74,23.87Z"/><path class="cls-2" d="M3.55,19.07c.42.09.55,0,.62-.26l.1,0L4,20.06l-.11,0c.06-.25,0-.41-.46-.52L.8,18.93l-.11.5c-.11.47,0,.71.33.82l0,.1-.79-.18,0-.1a.37.37,0,0,0,.14-.16,1.79,1.79,0,0,0,.11-.33l.4-1.8a.84.84,0,0,0,0-.58l0-.11.79.18v.06c-.31,0-.54.07-.66.62l-.12.53Z"/><path class="cls-2" d="M3.74,15.14l.92.45c.38.19.55.15.68-.12l.1,0-.56,1.15-.1-.05c.12-.24.1-.4-.33-.61l-2-1c-.37-.19-.54-.17-.68.11l-.09-.05L2.26,14l.09,0c-.12.25-.08.42.33.61l.9.45.85-1.74-.91-.44c-.38-.19-.54-.16-.67.11l-.1,0,.56-1.14.09,0c-.13.28,0,.43.33.61l2,1c.38.18.55.15.68-.12l.1,0-.56,1.14-.09,0c.12-.25.09-.39-.34-.6l-.92-.45Z"/><path class="cls-2" d="M7.92,9.33l-.07.08c-.28-.14-.34-.12-.57.16l-.56.67,1,.81c.13.11.22.11.35,0l.4-.48c.33-.4.39-.51.17-1l.07-.08.4.55L7.45,12l-.08-.07c.18-.22.19-.37-.17-.67L5.5,9.84c-.34-.28-.49-.28-.69-.05l-.08-.07,1.63-2,.46.38-.05,0c-.34-.18-.45-.11-.7.19l-.65.78,1.16,1,.64-.76c.15-.18.18-.28,0-.51l.07-.09Z"/><path class="cls-2" d="M14.55,5.34a1.46,1.46,0,0,1-.74,1.08A1.13,1.13,0,0,1,12.16,6l-.85-1.51c-.23-.41-.39-.43-.63-.3l0-.09,1.11-.63,0,.1c-.25.14-.3.29-.08.68l.88,1.56a.84.84,0,0,0,1.24.37,1.18,1.18,0,0,0,.6-1l-1-1.85c-.2-.36-.35-.44-.6-.31l0-.09,1.08-.61.06.09c-.26.15-.29.32-.08.69L14.87,5c.23.4.39.42.63.29l.05.09-.76.43Z"/><path class="cls-2" d="M20.16,3.94l-.1,0L16.88,1.61h0L17.48,4c.09.35.26.44.57.36l0,.1-1,.27,0-.1c.29-.08.4-.2.28-.7l-.52-2c-.1-.39-.25-.57-.67-.51l0-.1L17,1.11l2.82,2.12h0l-.51-2C19.16.77,19,.69,18.72.76l0-.1,1-.26,0,.1c-.33.09-.41.25-.3.65Z"/><path class="cls-2" d="M23,3c0,.43.14.55.43.54v.1l-1.27.07V3.6c.29,0,.4-.13.38-.58L22.47.82c0-.45-.13-.56-.43-.54V.17L23.3.11v.1c-.3,0-.4.16-.37.58Z"/><path class="cls-2" d="M26.62,3.88h-.1l-.7-3c-.11-.45-.18-.63-.51-.68l0-.11L26.6.26V.37c-.25,0-.39.08-.33.37l.56,2.38L27.93,1c.15-.28.11-.48-.2-.52V.41l1,.14V.66c-.27,0-.49.14-.73.59Z"/><path class="cls-2" d="M32.2,4l-.1,0c0-.31,0-.37-.35-.49l-.82-.31L30.5,4.31c-.06.17,0,.25.16.32l.58.21c.48.18.61.2,1-.16l.1,0-.38.57L29.54,4.4l0-.1c.26.1.41.06.57-.38l.76-2.08c.15-.41.1-.56-.19-.66l0-.1,2.4.88-.21.55-.06,0c.06-.39-.05-.46-.41-.6l-1-.35L31,3l.93.34c.22.08.33.08.48-.19l.09,0Z"/><path class="cls-2" d="M36.22,3.71l.31.21a.81.81,0,0,1,.3,1.16.76.76,0,0,1-1.14.22l-.36-.24Zm-1,1.48.23.15c.55.36.24,1.16.35,2.19l.61.4.05-.09c-.46-.36,0-1.45-.32-2.17a.87.87,0,0,0,1.08-.33c.26-.39.19-1-.47-1.42l-1.21-.8-.06.09c.24.16.29.29,0,.68L34.32,5.74c-.26.4-.42.4-.64.25l-.06.09,1.06.7.06-.09c-.24-.16-.26-.33,0-.69Z"/><path class="cls-2" d="M40.88,8.39l-.07-.07a.76.76,0,0,0,0-1.07A.57.57,0,0,0,40,7.17c-.46.46,0,1.22,0,1.94a.92.92,0,0,1-.28.71,1,1,0,0,1-1.43,0,3.61,3.61,0,0,1-.43-.71c-.05,0-.11,0-.2,0L37.58,9l.68-.67.08.07a.85.85,0,0,0,0,1.22.64.64,0,0,0,.95.06c.44-.43,0-1.3,0-1.86a1,1,0,0,1,.31-.74.9.9,0,0,1,1.33,0,4,4,0,0,1,.39.59s0,0,.13,0l.07.07Z"/><path class="cls-2" d="M41.18,12.18c-.35.24-.4.41-.23.65l-.09.06-.72-1.05.09-.06c.16.24.31.27.69,0l1.81-1.25c.36-.26.4-.4.23-.65l.09-.06.72,1-.08.06c-.17-.24-.35-.25-.7,0Z"/><path class="cls-2" d="M42.94,15.39c-.38.18-.46.3-.33.57l-.1.05L42,14.87l.1,0c.1.23.23.33.68.13l2.45-1.13L45,13.37c-.19-.44-.41-.58-.76-.45l0-.1.74-.33,0,.09a.53.53,0,0,0,0,.22,1.74,1.74,0,0,0,.11.32l.77,1.68c.13.28.23.4.36.46l0,.1-.73.34,0-.06c.24-.19.38-.38.15-.89l-.23-.49Z"/><path class="cls-2" d="M44.34,19.69c-.42.09-.53.2-.47.5l-.1,0L43.5,19l.1,0c.06.26.15.41.64.3L45.33,19l1-1c.33-.33.38-.44.34-.72l.1,0,.29,1.35-.1,0c-.09-.38-.23-.39-.41-.21l-.9.91,1,.36c.31.12.57.07.5-.22l.11,0,.2,1-.1,0c-.08-.26-.17-.34-.51-.47l-1.39-.51Z"/><path class="cls-2" d="M2.37,28.67c1-.29,1.79,0,2,.83S4.16,31,3.09,31.25a1.51,1.51,0,0,1-2-.83C.86,29.66,1.38,29,2.37,28.67Zm-.14-.53a1.89,1.89,0,1,0,2.29,1.31A1.83,1.83,0,0,0,2.23,28.14Z"/><path class="cls-2" d="M3.64,35c-.38.21-.44.37-.29.63l-.09,0-.63-1.11.09,0c.15.26.3.29.69.07l1.91-1.09c.39-.22.44-.37.29-.63l.09-.05,1.2,2.11-.54.31,0-.07c.33-.29.3-.39.11-.73L6,33.67l-1.29.74.46.8c.13.23.3.24.56.13l0,.09-.86.49-.05-.09A.36.36,0,0,0,5,35.3l-.47-.81Z"/><path class="cls-2" d="M10.42,41.83l-.08-.06c.14-.28.12-.35-.16-.58l-.68-.56-.81,1c-.11.14-.1.23.05.35l.48.39c.4.33.52.4,1,.17l.08.07L9.73,43l-2-1.62.07-.08c.21.18.36.19.66-.18l1.4-1.7c.28-.34.28-.5,0-.69l.06-.08,2,1.61-.38.46,0,0c.18-.35.11-.46-.2-.7l-.78-.65-1,1.17.76.63c.19.15.29.17.52,0l.08.07Z"/><path class="cls-2" d="M14.46,42l.61.28a1.53,1.53,0,0,1,.69,2.19,1.38,1.38,0,0,1-1.93.83l-.33-.15c-.3-.13-.37-.28-.14-.78Zm-1.58,2.28c-.18.4-.34.47-.6.35l0,.09,1.53.71a1.69,1.69,0,0,0,2.48-.74,1.82,1.82,0,0,0-1-2.5l-1.49-.68,0,.09c.27.13.3.29.13.68Z"/><path class="cls-2" d="M19.11,46.47c-.09.42,0,.57.27.63l0,.1-1.25-.27,0-.1c.28.06.41,0,.51-.47l.47-2.15c.1-.43,0-.57-.27-.63l0-.1,1.24.27,0,.1c-.29-.06-.43,0-.52.46Z"/><path class="cls-2" d="M25.51,47.61H25.4l-2.53-3h0l0,2.48c0,.36.15.49.47.49v.1H22.28v-.1c.3,0,.44-.1.43-.61l0-2.07c0-.4-.11-.62-.53-.65v-.1l.91,0,2.24,2.74h0l0-2.07c0-.47-.13-.58-.44-.58v-.1h1.07v.1c-.35,0-.46.15-.45.56Z"/><path class="cls-2" d="M29.21,45.07l-.4-1.45.34-.09a.74.74,0,0,1,1,.51.73.73,0,0,1-.61.93Zm-.13,1.32c.12.41.05.57-.23.64l0,.11,1.58-.44c.64-.17,1-.62.86-1.13a1.06,1.06,0,0,0-1.14-.72h0c.43-.28.58-.59.48-1s-.6-.74-1.42-.51l-1.28.35,0,.11c.29-.08.42,0,.54.43Zm.17-1.19.32-.09a.9.9,0,0,1,1.21.57.69.69,0,0,1-.47.92l-.28.08c-.27.07-.38,0-.51-.48Z"/><path class="cls-2" d="M36.4,43.49a1.45,1.45,0,0,1-.72,1.09A1.13,1.13,0,0,1,34,44.14l-.87-1.5c-.24-.41-.39-.42-.63-.28l-.06-.09,1.11-.65,0,.09c-.25.15-.3.3-.07.69l.9,1.54a.85.85,0,0,0,1.25.35,1.18,1.18,0,0,0,.58-1L35.2,41.44c-.2-.36-.35-.43-.6-.3l-.06-.09,1.08-.63.05.09c-.25.15-.27.32-.06.69l1.11,1.9c.23.4.4.43.63.29l0,.09-.75.44Z"/><path class="cls-2" d="M37.83,38.69l.26-.26a.81.81,0,0,1,1.2-.07.76.76,0,0,1,0,1.16l-.31.31Zm1.26,1.25.2-.21c.45-.46,1.18,0,2.21.09l.51-.51-.07-.08c-.45.39-1.43-.27-2.2-.1A.88.88,0,0,0,39.63,38c-.33-.33-.93-.38-1.49.19l-1,1,.08.07c.2-.2.34-.22.67.1L39.45,41c.34.33.31.49.12.68l.07.07.9-.9-.08-.07c-.2.2-.37.19-.68-.11Z"/><path class="cls-2" d="M44.9,35a6.15,6.15,0,0,1-.44.89,1.79,1.79,0,0,1-2.58.86,1.87,1.87,0,0,1-.72-2.57c.26-.43.5-.51.64-.74s.06-.15,0-.23l.06-.1.89.55,0,.08a1.12,1.12,0,0,0-1.42.51,1.39,1.39,0,0,0,.7,1.92,1.62,1.62,0,0,0,2.3-.3c.13-.22.26-.54,0-.71L43.94,35c-.37-.23-.55-.23-.7,0l-.07.12-.09-.06.74-1.22.09,0c-.18.3-.08.47.18.62Z"/><path class="cls-2" d="M44.8,30.93l1,.28c.41.12.57.06.65-.23l.1,0-.35,1.23-.11,0c.08-.26,0-.41-.42-.54l-2.12-.61c-.41-.12-.57-.07-.65.23l-.1,0L43.14,30l.1,0c-.08.27,0,.42.43.55l1,.28L45.17,29l-1-.28c-.41-.12-.56-.07-.65.22l-.1,0,.35-1.21.1,0c-.08.29,0,.42.43.54l2.12.61c.4.11.57.06.65-.23l.1,0-.35,1.21-.1,0c.08-.27,0-.41-.43-.54l-1-.28Z"/><path class="cls-2" d="M2.06,24.19a.32.32,0,0,1-.63,0,.33.33,0,0,1,.32-.32A.33.33,0,0,1,2.06,24.19Z"/><path class="cls-2" d="M46.29,24.19a.31.31,0,0,1-.31.31.31.31,0,1,1,.31-.31Z"/><path class="cls-2" d="M32.93,40.25c.25-.13.48-.3.72-.45l.61-.38c.18-.13.35-.29.54-.42l.59-.42.12-.12.14-.08c.16-.13.34-.28.49-.42s.22-.25.35-.37.28-.22.41-.34a2,2,0,0,0,.14-.16c.1-.1.22-.21.31-.32l.21-.25a6.78,6.78,0,0,0,.67-.75l.5-.6.32-.46.18-.19.53-.74c.05-.09.09-.17.13-.26l.12-.17a2.14,2.14,0,0,0,.1-.22c.13-.2.24-.41.35-.62l.28-.48c.08-.16.13-.33.2-.5l.24-.51c.28-.74.55-1.48.77-2.24a2.56,2.56,0,0,1,0-.27c0-.28.13-.56.19-.85s0-.29.05-.44l.12-.73c0-.2,0-.4,0-.59s0-.15.05-.23,0-.33,0-.49a1.87,1.87,0,0,0,0-.25v-.34a19.12,19.12,0,0,0,0-2.27c0-.38-.11-.76-.15-1.13A11.14,11.14,0,0,0,42.23,20a20,20,0,0,0-.87-3c0-.14-.13-.27-.19-.4-.12-.29-.25-.55-.39-.83l-.13-.23c-.12-.24-.2-.5-.32-.73s-.17-.27-.26-.41L39.86,14c-.26-.41-.54-.81-.81-1.21-.1-.12-.2-.24-.31-.35L38.4,12c-.11-.11-.23-.2-.33-.32s-.08-.15-.14-.22l-.26-.28L37.52,11l-.39-.44-.35-.34c-.12-.11-.23-.23-.34-.34L36,9.52l-.48-.42c-.11-.08-.23-.14-.34-.21l-.42-.31-.29-.23-.23-.14L33.9,8c-.33-.2-.69-.36-1-.54l-.38-.23-.65-.33a5.25,5.25,0,0,0-.55-.22L31,6.52l-.21-.07-.33-.15c-.34-.12-.7-.21-1.06-.32l-.51-.17c-.37-.11-.74-.17-1.12-.25s-.5-.13-.75-.17l-.49-.07-.85-.14h-.33l-.23,0H24.7c-.33,0-.68,0-1-.06a1.81,1.81,0,0,1-.47,0h-.54l-.15,0h-.37l-.2,0-.2,0a.55.55,0,0,0-.18,0l-.11,0a.43.43,0,0,0-.23,0,1.45,1.45,0,0,0-.57.09l-.12,0a.74.74,0,0,0-.34.06,3.37,3.37,0,0,0-.79.18,1.86,1.86,0,0,0-.42.12.7.7,0,0,0-.33.08,1.48,1.48,0,0,0-.5.17c-.09,0-.2,0-.29.09a1.36,1.36,0,0,0-.49.17l-.31.13c-.56.24-1.11.51-1.65.79l-.27.17A10,10,0,0,0,13.28,8.5l-.51.36-.26.24c-.16.12-.34.22-.5.35-.32.28-.63.59-.93.89l-.55.5c-.07.07-.13.15-.19.22l-.26.24c-.13.13-.22.29-.35.43s-.23.22-.33.34l-.14.19c-.19.22-.38.44-.55.67l-.35.54a7.06,7.06,0,0,0-.48.73c0,.07-.07.15-.11.23L7.43,15c-.1.19-.16.4-.26.59L7,15.81c-.09.18-.17.35-.27.52s-.09.23-.14.34-.11.24-.17.35-.09.27-.13.4-.11.29-.17.43a27.47,27.47,0,0,0-.7,2.74c0,.18,0,.36,0,.54s-.09.43-.11.64a2.63,2.63,0,0,1,0,.49c0,.12,0,.25,0,.37,0,.77,0,1.5,0,2.24,0,.36.08.72.11,1.07,0,.15,0,.3,0,.45.05.48.13,1,.2,1.44,0,.12.07.24.11.37.08.37.16.73.27,1.09l.09.25a2,2,0,0,1,.06.26c.15.39.29.79.43,1.19l.21.45c0,.1.06.21.1.3.11.26.27.49.4.73s.22.39.32.59l.09.22a1.47,1.47,0,0,1,.1.13l.12.25a3.14,3.14,0,0,0,.33.48c.07.09.13.2.2.29s.21.24.3.36l.22.32.4.47.33.42.42.44a4.35,4.35,0,0,0,.34.41c.19.17.37.34.54.52l.28.28c.15.13.33.22.47.36l.42.41.31.23a3.8,3.8,0,0,0,.37.33c.17.11.32.24.49.34a3.84,3.84,0,0,1,.35.18l.38.26c.12.09.26.15.39.23a14,14,0,0,0,1.48.79,5.21,5.21,0,0,0,.67.33l.65.25.24.07.65.25.17,0c.18.07.37.15.56.21l.7.14c.35.07.71.17,1.06.23l.39,0,.53.08.4,0,.27.05h.27l.64.09h.33l.19,0,.62,0h.36a3.29,3.29,0,0,0,.71-.06l.31,0,.42-.05a12.14,12.14,0,0,0,1.49-.2l.49-.13.62-.12c.11,0,.2-.09.31-.13l.5-.15.21-.08c.13,0,.24,0,.36-.08l.74-.26.44-.21.43-.18.11-.07c.15-.07.31-.14.45-.22l.51-.29Z"/><path class="cls-3" d="M23.67,41h0v0s0,0,0-.05l-.19-.3-.4-.46a4.61,4.61,0,0,0-1.34-.91l-.31-.11A3.36,3.36,0,0,0,21,39a1.86,1.86,0,0,0-.34-.07l-.36-.09-.75-.17-.74-.09-.57,0c-.88-.09-1.76-.18-2.61-.32-.3-.05-.58-.05-.87-.1a6,6,0,0,1-.83-.22l-.45-.13-.43-.2-.29-.13-.21-.13-.1,0a4.3,4.3,0,0,1-.6-.68,1.76,1.76,0,0,1-.27-.59c0-.11-.07-.21-.1-.32a8.49,8.49,0,0,1-.1-1.53c0-.1,0-.21,0-.31,0-.4,0-.8,0-1.2a2.35,2.35,0,0,0,0-.26c0-.39,0-.79,0-1.19s0-.52,0-.77c0-1.07,0-2.15,0-3.23,0-.16,0-.31,0-.46s0-.33,0-.49V26l.06-.74c0-.19,0-.37,0-.55s0-.27,0-.41,0-.22,0-.34,0-.21,0-.31,0-.44,0-.66,0-.26,0-.39,0-.29,0-.44,0-.36.05-.54,0-.34,0-.51c0-.36,0-.76,0-1.14,0-.08,0-.15,0-.23l0-.49c0-.14,0-.28,0-.43,0-.67,0-1.38,0-2v-.68c0-.17,0-.32,0-.49s0-.22,0-.33c0-.57,0-1.15,0-1.73,0-.22,0-.41,0-.61s0-.48,0-.72,0-.31,0-.47a1.52,1.52,0,0,1,0-.43s0,0,.07,0a2.89,2.89,0,0,1,.78,0,6,6,0,0,0,.95,0h.87l.52,0,.95,0H17l.34,0,.49,0c.14,0,.27,0,.41,0s.35,0,.52,0,.56,0,.84,0l.39,0,1.16,0,.77,0c.22,0,.43,0,.65,0l.49,0h.44l.51,0,.39,0,.77,0,.36,0h2.06l.46,0c.31,0,.64,0,.95,0l.19,0c.26,0,.57,0,.85,0,.12,0,.22,0,.33,0h.37l.64,0c.14,0,.28,0,.43,0l.31,0a3.53,3.53,0,0,1,.46,0l.31,0h.26l.28,0,.27,0c.18,0,.35,0,.51,0s.53,0,.8,0l.39,0h.26a.72.72,0,0,1,.26,0l0,0c.06.08,0,.24,0,.36,0,.37,0,.73,0,1.09s0,.49,0,.72c0,.08,0,.15,0,.23s0,.32,0,.49,0,.33,0,.49,0,.43,0,.64l0,.24c0,.15,0,.27,0,.41l0,.43V17l0,.39c0,.21,0,.43,0,.64a2,2,0,0,1,0,.23c0,.17,0,.35,0,.52s0,.64,0,.93l0,.2c0,.14,0,.27,0,.41s0,.33,0,.5,0,.24,0,.36a1.36,1.36,0,0,0,0,.2v.26c0,.33,0,.65,0,1,0,.17,0,.33,0,.49s0,.13,0,.2,0,.22,0,.33,0,.14,0,.21l0,.36c0,.16,0,.33,0,.5,0,.48,0,.93,0,1.41,0,.19,0,.36,0,.55l0,.31c0,.23,0,.45,0,.68l0,.36c0,.45,0,.9,0,1.35s0,.65,0,1l0,.5a1.34,1.34,0,0,0,0,.2c0,.12,0,.24,0,.36,0,.29,0,.58,0,.87v1.06a2.81,2.81,0,0,0,0,.29,1.1,1.1,0,0,0,0,.18l0,.62c0,.18,0,.36,0,.54l-.06.33c0,.12,0,.24-.05.36a2.6,2.6,0,0,1-.29.66,2.44,2.44,0,0,1-.37.35l-.23.18a2.3,2.3,0,0,1-.44.33l-.3.11-.62.26c-.19.07-.39.12-.58.2l-.15.05a.74.74,0,0,0-.33.09.75.75,0,0,0-.26.05,1,1,0,0,0-.35.08l-.11,0a.41.41,0,0,0-.16,0,1.23,1.23,0,0,0-.44.1.74.74,0,0,0-.3,0,.29.29,0,0,0-.16,0,.55.55,0,0,0-.26,0h-.13a.45.45,0,0,0-.2,0,.36.36,0,0,0-.18,0,1,1,0,0,0-.38,0h-.13c-.11,0-.25,0-.34,0a.67.67,0,0,0-.2,0l-.09,0a1.19,1.19,0,0,0-.33,0l-.13,0-.1,0h-.1l-.15,0a.4.4,0,0,0-.19,0h-.13a.4.4,0,0,0-.22,0,.4.4,0,0,0-.19,0,.27.27,0,0,0-.16,0,.33.33,0,0,0-.15,0l-.1,0a.55.55,0,0,0-.26.06.33.33,0,0,0-.15,0,1.36,1.36,0,0,0-.46.13l-.34.13a1.1,1.1,0,0,0-.61.34,4.66,4.66,0,0,0-.47.3A3.51,3.51,0,0,0,23.67,41Z"/><path class="cls-2" d="M25.49,38.69l.3-.13a6.21,6.21,0,0,1,.62-.14c.39-.09.77-.19,1.17-.27l.29,0a3.4,3.4,0,0,1,.46-.08L29,38l.75-.09c.23,0,.45,0,.67,0l.59-.1.19,0c.31,0,.6-.12.89-.18l.29-.07c.28-.08.55-.19.83-.27s.44-.15.66-.25a3.86,3.86,0,0,0,.51-.31,2.27,2.27,0,0,0,.84-.73,1.6,1.6,0,0,0,.19-.53c0-.08,0-.16,0-.24a6.77,6.77,0,0,0,0-1.11c0-.13,0-.26,0-.39a1.48,1.48,0,0,0,0-.21v-.43a.88.88,0,0,1,0-.16s0-.1,0-.15,0-.1,0-.15,0-.17,0-.27,0-.19,0-.3,0-.22,0-.34c0-.43,0-.85,0-1.28,0-.1,0-.2,0-.31V29c0-1,0-2.12,0-3.14,0-.11,0-.22,0-.33s0-.07,0-.1a1.18,1.18,0,0,0,0-.44,2.06,2.06,0,0,0,0-.26c0-.19,0-.35,0-.54s0-.24,0-.36a1.09,1.09,0,0,0,0-.18l0-.18c0-.07,0-.14,0-.21s0-.16,0-.25,0-.13,0-.21V21.43c0-.1,0-.18,0-.28s0-.17,0-.26l0-.15c0-.14,0-.29,0-.44s0-.47,0-.7,0-.15,0-.23,0-.35,0-.52,0-.27,0-.41c0-1.05,0-2.06,0-3.11,0-.57,0-1.14,0-1.71,0-.31,0-.65,0-.95v-.9h0s-.16,0-.18,0h-.92a5.74,5.74,0,0,0-.6,0,.53.53,0,0,0-.18,0l-.23,0-.33,0H31.89a2.42,2.42,0,0,0-.46,0h-.59a1.41,1.41,0,0,0-.5,0l-.13,0h-.43c-.21,0-.42,0-.64,0s-.39,0-.55,0l-.13,0H28a.75.75,0,0,0-.26,0,.5.5,0,0,0-.17,0c-.14,0-.25,0-.39,0h-1a1.13,1.13,0,0,0-.41,0l-.11,0h-.15c-.19,0-.51-.1-.67,0h-.1a.49.49,0,0,0-.21,0H22.65s-.14,0-.19,0H22.1a2,2,0,0,0-.69,0h-.32a.88.88,0,0,0-.23,0,1,1,0,0,0-.31,0c-.2,0-.37,0-.58,0a.58.58,0,0,0-.19,0,1.26,1.26,0,0,0-.39,0h-.56a.86.86,0,0,0-.28,0h-.7a1.57,1.57,0,0,0-.57,0,2.37,2.37,0,0,0-.53,0c-.3,0-.59,0-.9,0a.92.92,0,0,0-.37,0,.36.36,0,0,0-.18,0,1.58,1.58,0,0,0-.38,0,1,1,0,0,0-.34,0l-1.21,0a1.26,1.26,0,0,0-.39,0,2.85,2.85,0,0,0-.59,0c-.09,0-.24,0-.29,0s0,.52,0,.66,0,.22,0,.33a1.55,1.55,0,0,1,0,.31v.45c0,.42,0,.82,0,1.25,0,.11,0,.2,0,.31s0,.22,0,.32,0,.21,0,.31,0,.44,0,.65c0,.38,0,.77,0,1.17,0,.15,0,.3,0,.45s0,.1,0,.15a2.7,2.7,0,0,1,0,.28c0,.66,0,1.3,0,2,0,.29,0,.56,0,.85l0,.42c0,.21,0,.43,0,.64,0,.42,0,.86,0,1.29,0,.15,0,.3,0,.46l0,.59c0,.77,0,1.57,0,2.35,0,.19,0,.36,0,.56v.62a2.44,2.44,0,0,1,0,.27c0,.71,0,1.38,0,2.1,0,.32,0,.6,0,.91v.41l0,.16,0,.17c0,.15,0,.32,0,.47s0,.4,0,.61a1.86,1.86,0,0,1,0,.26c0,.09,0,.16,0,.26s0,.19,0,.31a4.31,4.31,0,0,0,.39,2.3,2.49,2.49,0,0,0,1.19.91,6.4,6.4,0,0,0,.95.36c.25.06.49.09.75.13a6,6,0,0,0,.61.11l.58,0c.42.06.83.13,1.26.18l.61,0,.26.06h.47l.51,0h.26l.23.06c.21,0,.42,0,.63.1l.2.07a3.06,3.06,0,0,1,.43.13l.62.22.44.23.24.16a2.41,2.41,0,0,1,.48.3,4.42,4.42,0,0,1,.47.5c.06.06.08.14.15.18s0,0,0,0,.08-.08.1-.11a1.4,1.4,0,0,0,.1-.16,3.88,3.88,0,0,1,1.43-1.18Z"/><path class="cls-3" d="M25.59,13.79v0h-.05c0-.06,0-.11,0-.16s.16-.24.25-.36C26,13.44,25.69,13.68,25.59,13.79Z"/><path class="cls-3" d="M26.43,12.43a1.56,1.56,0,0,0,.17-.25l.16-.15.35,0v0c-.17,0-.63.57-.74.72s-.11.2-.19.24a.12.12,0,0,1-.14,0c-.12-.06,0-.19,0-.27s0-.11.07-.14l.13-.07Z"/><path class="cls-3" d="M25.32,12.82a2.33,2.33,0,0,1,.07-.25c.05-.1.18-.12.26-.2s.08-.15.14-.22A.4.4,0,0,1,26,12h.2c0,.08-.11.16-.15.23s-.1.18-.16.27l-.19.26a2,2,0,0,1-.11.2l-.12.09-.11.12-.11.1c-.07.08-.07.2-.16.27a.39.39,0,0,1-.32.07h0a2,2,0,0,1,.26-.43s.11,0,.15-.09,0-.1.05-.15S25.3,12.89,25.32,12.82Z"/><path class="cls-3" d="M24.08,12.59c0-.08.1-.13.13-.21s0-.18.06-.25.49,0,.62-.09h.26v0s0,0,0,0a3.23,3.23,0,0,0-.29.59l-.12.22c0,.07-.07.15-.1.23s-.29.43-.48.46h0s0-.15,0-.18a.78.78,0,0,1,0-.22c0-.08.05-.14.05-.24S24.06,12.71,24.08,12.59Z"/><path class="cls-3" d="M22.79,12.05c.06-.07.29,0,.39-.05a2.53,2.53,0,0,0,.49,0,1.7,1.7,0,0,0,0,.22l0,.16,0,.18c0,.26,0,.51-.05.77l0,.47h0v0c-.21,0-.45-.63-.53-.78s-.12-.13-.17-.21S22.61,12.24,22.79,12.05Z"/><path class="cls-3" d="M21.46,12.17h0c0-.1.29-.1.38-.16a.73.73,0,0,1,.3,0c.23.11.31.45.41.66s.14.28.2.41l.13.22a1,1,0,0,1,.05.24c0,.06,0,.18-.05.21a.22.22,0,0,1-.16,0,15.47,15.47,0,0,1-1.27-1.56v0Z"/><path class="cls-3" d="M20.82,12a.47.47,0,0,1,.29.14,2.31,2.31,0,0,1,.34.42,1.5,1.5,0,0,0,.15.23l.24.26c.07.09.15.18.22.28l.08.11.15.14a1.35,1.35,0,0,1,.27.37s0,0,0,0a.45.45,0,0,1-.26-.08L22,13.61c-.07-.06-.15-.09-.2-.17a3.9,3.9,0,0,0-.34-.46c-.08-.08-.19-.09-.27-.17h0a2.49,2.49,0,0,1-.19-.3c-.08-.11-.2-.18-.28-.29a0,0,0,0,0,0,0v0C20.63,12.08,20.76,12.05,20.82,12Z"/><path class="cls-3" d="M24.48,15.42l.14,0a.36.36,0,0,1,.21.4.63.63,0,0,1-.19.21s-.11.09-.18.08-.05-.21,0-.26.12-.1.12-.19S24.48,15.52,24.48,15.42Z"/><path class="cls-3" d="M24.71,14.75c-.05,0-.12.12-.19.11s-.14-.14-.21-.2-.22-.11-.2-.24a.14.14,0,0,1,.1-.1h0a1,1,0,0,1,.28.12l.35.11a.06.06,0,0,1,0,.07C24.84,14.68,24.77,14.71,24.71,14.75Z"/><path class="cls-3" d="M24.5,16.77c0,.12-.3.17-.39.11s.13-.26.18-.3S24.52,16.68,24.5,16.77Z"/><path class="cls-3" d="M23.79,16.67c-.05,0-.07,0-.11-.06a.6.6,0,0,1-.11-.06c-.08-.1-.06-.19-.06-.32a.45.45,0,0,1,0-.2.31.31,0,0,1,.12-.11.35.35,0,0,1,.14,0,4.54,4.54,0,0,1,.38.38C24.17,16.46,23.88,16.65,23.79,16.67Z"/><path class="cls-3" d="M25.71,15.62a.35.35,0,0,1-.17.3s-.06,0-.08,0,.15-.21.23-.28Z"/><path class="cls-3" d="M25.4,15.41a.22.22,0,0,1-.13.06.09.09,0,0,1-.1-.08,4.28,4.28,0,0,1,0-.62s.11-.1.15-.15.12.12.16.23S25.61,15.25,25.4,15.41Z"/><path class="cls-3" d="M25.2,16.35s0,0,0,0-.21.21-.27.14,0-.18.08-.24S25.15,16.28,25.2,16.35Z"/><path class="cls-3" d="M23.7,14.63l.17,0c.11,0,.43.3.4.43s-.14.18-.23.26a.64.64,0,0,1-.31.2c-.12,0-.3-.53-.28-.63a1.54,1.54,0,0,1,.25-.26Z"/><path class="cls-3" d="M23.32,16c-.06.05-.15.15-.23.15s-.1,0-.15-.08a.49.49,0,0,1-.15-.44s.05-.09.08-.14,0-.15.12-.25c.15.06.55.36.51.55S23.38,15.91,23.32,16Z"/><path class="cls-3" d="M23.39,16.85h0s-.06,0-.08,0c-.25-.05-.52-.12-.31-.42a.29.29,0,0,1,.1,0c.06,0,.08.11.12.16S23.36,16.75,23.39,16.85Z"/><path class="cls-3" d="M22.26,14.77a.9.9,0,0,1,.17-.16v0c.2.13.37.37.16.59a.45.45,0,0,1-.17.11c-.19,0-.11-.21-.12-.31A.78.78,0,0,0,22.26,14.77Z"/><path class="cls-3" d="M22.64,14.46v-.05l.1,0a1.5,1.5,0,0,0,.51-.15c.05,0,.13,0,.16.06s-.33.44-.46.43S22.74,14.54,22.64,14.46Z"/><path class="cls-3" d="M22.39,15.82l.09,0c.08.05.36.32.37.41s-.23.26-.31.27-.08-.05-.1-.1A.78.78,0,0,1,22.39,15.82Z"/><path class="cls-3" d="M22.05,15.64c-.16,0-.12-.26-.12-.37C22.05,15.31,22.29,15.58,22.05,15.64Z"/><path class="cls-3" d="M24.07,32.64a6,6,0,0,1,.41-.62l.1-.08h.25a2.15,2.15,0,0,1-.49.71.69.69,0,0,1-.25,0v0Z"/><path class="cls-3" d="M21.58,32.59a.91.91,0,0,1-.33,0c0-.15.6-.58.72-.7h.25A2.29,2.29,0,0,1,21.58,32.59Z"/><path class="cls-3" d="M26,35.82c-.1,0-.25,0-.3-.12a.77.77,0,0,1-.12-.28,3.75,3.75,0,0,0-.17-.47,1,1,0,0,1-.1-.37c0-.08.08-.11.14-.15s.08,0,.1.07a.77.77,0,0,1,.07.16c.05.15.1.3.14.46a4.81,4.81,0,0,0,.2.53S26.1,35.8,26,35.82Z"/><path class="cls-3" d="M25.49,31.91c.08.11.55.62.52.72s0,0-.06,0H24.78v0h0a.26.26,0,0,1,.07-.15c.08-.15.38-.56.36-.71a.13.13,0,0,0-.09-.11,2,2,0,0,0-.64,0,1.31,1.31,0,0,0-.48,0c-.21,0-1-.11-1.05.08,0,0,0,.1,0,.13a2.85,2.85,0,0,0,.34.49,2.9,2.9,0,0,0,.19.29v0h0l-1.38,0v0s.67-.79.74-.88a.06.06,0,0,0,0,0l-.25,0-.41,0c-.39,0-.8,0-1.17,0,0-.05.56-.58.63-.66.47-.5,1-1,1.46-1.46l.51-.52a.47.47,0,0,1,.18-.14v0a1.18,1.18,0,0,1,.29.26l.44.45.28.26c.42.44.87.86,1.3,1.29a4.22,4.22,0,0,1,.55.57h-.51c-.05,0-.12,0-.16,0a1.46,1.46,0,0,0-.56,0C25.37,31.77,25.45,31.85,25.49,31.91Z"/><path class="cls-3" d="M20.87,33.76a6.44,6.44,0,0,1,1.53,0c.33,0,.62,0,.93,0s.88,0,1.31,0h.69c.51,0,1.05,0,1.55,0v0s0-.14,0-.18c0-.33,0-.67,0-1a3.86,3.86,0,0,1,0-.69c.27.14.24.48.25.77s0,.39,0,.59l0,.31a1.91,1.91,0,0,1,0,.48v0h0S27,34,27,34h-.77a1.18,1.18,0,0,0-.38,0,1.08,1.08,0,0,0-.31,0c-.3,0-.58,0-.88,0a1.09,1.09,0,0,0-.44,0c-.22,0-.43,0-.65,0a.37.37,0,0,0-.15,0,2,2,0,0,0-.49,0,.71.71,0,0,0-.21,0h-1.3c-.24,0-.43.06-.55-.15C20.87,33.83,20.85,33.79,20.87,33.76Z"/><path class="cls-3" d="M27.1,37.84c-.05.07-.2.09-.28.1,0-.41,0-.85,0-1.26a1.51,1.51,0,0,1,0-.37s0-.06.05-.09a.43.43,0,0,1,.23,0s0,.17,0,.21a2.72,2.72,0,0,0,0,.28c0,.14,0,.27,0,.42S27.18,37.73,27.1,37.84Z"/><path class="cls-3" d="M32,37.31a.33.33,0,0,0-.17,0,.84.84,0,0,0-.31.08,2.7,2.7,0,0,0-.41.08l-.27.05a.59.59,0,0,0-.2,0l-.12,0h-.11a.67.67,0,0,0-.29,0l-.12,0a.9.9,0,0,0-.47,0,.53.53,0,0,0-.18,0,1.2,1.2,0,0,1-.2,0s-.19.06-.23.08a1.26,1.26,0,0,0-.34,0l-.11,0a.72.72,0,0,0-.33,0,.47.47,0,0,0-.21,0c-.11,0-.38,0-.45,0a5.54,5.54,0,0,1,0-1.31c0-.1,0-.2,0-.3s0-.45-.15-.39a1.67,1.67,0,0,0-.39,0,1.35,1.35,0,0,1-.46,0,2.57,2.57,0,0,1-.23-.66,2.8,2.8,0,0,1-.26-.7s0-.07,0-.09.26-.05.34-.05,1.07,0,1.14-.12a1.06,1.06,0,0,0,0-.44c0-.15,0-.31,0-.47a3.1,3.1,0,0,1,0-.75c.55.6,1.19,1.15,1.76,1.75l.16.2.45.42c.4.39.76.81,1.15,1.2s.61.59.9.89c.06.06.16.12.18.19S32,37.29,32,37.31Z"/><path class="cls-3" d="M30.93,21.79l.27-.32c.1-.11.23-.19.34-.3l.42-.44.49-.46.94-1c.49-.47,1-.92,1.43-1.42a4.4,4.4,0,0,0,.37-.38c.08.11,0,.4,0,.56,0,.36,0,.75,0,1.12l0,.57c0,.2,0,.4,0,.59s0,.23,0,.35,0,.1,0,.16a1.36,1.36,0,0,1,0,.2c0,.05,0,.11,0,.16a7,7,0,0,0,0,.92c0,.15,0,.31,0,.47l0,.26c0,.2,0,.39,0,.59a1.21,1.21,0,0,1,0,.19,2.53,2.53,0,0,1,0,.38c0,.17,0,.36,0,.54s0,.45,0,.67,0,.27,0,.41a.77.77,0,0,1,0,.15c0,.14,0,.29,0,.44s0,.2,0,.31a1.81,1.81,0,0,1,0,.23,2.36,2.36,0,0,0,0,.46,3.76,3.76,0,0,1,0,.75l0,.16c0,.14,0,.26,0,.39l0,.23a2.18,2.18,0,0,0,0,.25c0,.1,0,.21,0,.32s.06.69,0,.69a6.69,6.69,0,0,1-.68-.65l-1.95-2c-.11-.1-.2-.22-.3-.32L32,26.78l-.15-.16-1.88-1.86a13.24,13.24,0,0,1-.93-1v0c.07-.16.32-.33.45-.45s.24-.28.37-.42l.37-.35a.69.69,0,0,1,.13-.11l.3-.32Z"/><path class="cls-3" d="M27.17,12.68a.7.7,0,0,0,.16-.1l.1-.15c.09-.13.18-.23.28-.35l.12-.1a.64.64,0,0,1,.28,0,4.63,4.63,0,0,0,.54,0,.85.85,0,0,0,.23,0h.38c.14,0,.29,0,.44.06s.25-.05.37-.05l.14,0a1.28,1.28,0,0,0,.48,0h0s0,0,0,0v0a5,5,0,0,1-.58.55l-1.05,1-.25.22c-.31.32-.59.67-.92,1l-.34.33-.2.17-.21.26-.61.6-.3.34-.64.63-1.1,1.09a3,3,0,0,1-.37.35v0h0v0h0c0-.05,0-.1,0-.14s0-.23,0-.35,0-.12.05-.18,0-.2,0-.3.1-.09.15-.13.15-.22.27-.29A3.52,3.52,0,0,1,25,17c.09,0,.15-.11.23-.15a1.92,1.92,0,0,0,.5-.4,2.12,2.12,0,0,0,.11-.21c0-.06.09-.12.13-.19a2.14,2.14,0,0,0,.06-.27,1.41,1.41,0,0,0,.09-.38c0-.12,0-.25,0-.37a.87.87,0,0,0-.21-.43.57.57,0,0,1-.11-.16s0-.05,0-.06a.44.44,0,0,1,.08-.11,1.65,1.65,0,0,1,.39-.48c.09-.06.1-.15.16-.23s.19-.14.27-.23l.13-.17a.64.64,0,0,1,.1-.18,1.09,1.09,0,0,1,.17-.13Z"/><path class="cls-3" d="M17.7,12a2.16,2.16,0,0,0,.51,0,2.23,2.23,0,0,0,.37,0l.3,0h.41l.17,0c.13,0,.28-.08.4,0a1.27,1.27,0,0,1,.38.32l.52.52c.12.13.23.27.35.39s.3.26.45.42.14.19.23.28l.14.11a1.09,1.09,0,0,1,.24.29c-.06,0-.13.11-.17.15a1,1,0,0,0-.28.47c0,.08,0,.15,0,.23a1.5,1.5,0,0,0,0,.37,2.68,2.68,0,0,0,.07.27l.11.26a1.6,1.6,0,0,0,.13.3c.05.07.14.09.2.14s.09.12.16.17l.18.09.25.17a2.5,2.5,0,0,1,.35.21l.19.26c.06.08.15.13.2.21a.72.72,0,0,1,.05.21,1.21,1.21,0,0,0,0,.19,1.75,1.75,0,0,1,.07.51c-.13,0-.41-.33-.51-.43l-.61-.57L22,17.05c-.29-.3-.6-.59-.89-.89l-.47-.48-.2-.22-1.59-1.57-.42-.46c-.31-.3-.59-.61-.91-.9-.16-.15-.49-.35-.55-.55C17.24,12,17.47,12,17.7,12Z"/><path class="cls-3" d="M14.25,28.07c-.24.23-.43.48-.66.71l-1,1a3.12,3.12,0,0,0-.36.37h0s0-.06,0-.08v-.36c0-.36,0-.72,0-1.08v-.87c0-.1,0-.19,0-.29,0-.27,0-.57,0-.85,0-.12,0-.24,0-.36s0-.36,0-.54,0-.22,0-.33c0-.31,0-.62,0-.93,0-.09,0-.19,0-.28l0-.34c0-.26,0-.5,0-.75s0-.38,0-.57c0-.41,0-.82,0-1.23,0-.2,0-.39,0-.59l0-.31c0-.41,0-.84,0-1.24,0-.09,0-.18,0-.26a3,3,0,0,1,0-.31c0-.12,0-.24,0-.36l0-.21c0-.2,0-.4,0-.59a1.37,1.37,0,0,1,.43.37l.85.82c.09.11.19.21.29.31s.42.41.61.63l.2.22c.14.13.29.25.43.4s.09.13.15.19l1,.91.94,1c.2.19,1.45,1.37,1.38,1.55a.61.61,0,0,1-.07.1,3.83,3.83,0,0,1-.71.74c-.08.07-.13.17-.21.24l-.55.56-.78.76-.51.52-.13.15C15.11,27.26,14.68,27.68,14.25,28.07Z"/><path class="cls-3" d="M21.2,35.86a2.6,2.6,0,0,0-.7,0s0,.06,0,.1c0,.44,0,.87,0,1.31a2.83,2.83,0,0,1,0,.65.24.24,0,0,1-.07.12h0A2.12,2.12,0,0,1,20,38c-.12,0-.24,0-.36,0l-.26,0-.51,0a.6.6,0,0,0-.23,0c-.39,0-.75-.08-1.12-.11-.18,0-.35,0-.51,0l-.41-.07-.18,0h-.26l-.59-.11a1.78,1.78,0,0,1-.47-.08h0v0s0,0,0,0a2.05,2.05,0,0,1,.38-.4l.34-.35c.18-.17.37-.33.54-.5l.27-.26.21-.24c.45-.43.91-.85,1.35-1.3.27-.28.52-.57.8-.83s.77-.74,1.14-1.12l.32-.34a1.55,1.55,0,0,1,0,.61c0,.21,0,.42,0,.64a1.05,1.05,0,0,0,0,.4,1.29,1.29,0,0,0,.19.32c0,.06.06.14.13.18a1.57,1.57,0,0,0,.54.06l.73,0a2,2,0,0,1-.16.49c-.1.25-.2.5-.29.75a1.6,1.6,0,0,1-.13.3c-.05,0-.12,0-.19,0Z"/><path class="cls-3" d="M22.31,38.77a1.44,1.44,0,0,1-.48-.2,2.35,2.35,0,0,1-.37-.14h0s0,0,0,0A6.88,6.88,0,0,0,23,38.34c.05-.05.05-.26.05-.34,0-.53-.06-1.24.42-1.51a.94.94,0,0,1,.22-.07c.14,0,.47,0,.45.23s-.05,0-.09,0c-.32,0-.38.22-.51.47a2.07,2.07,0,0,0-.1.81c0,.26,0,.5,0,.77h0s-.16,0-.19,0-.17,0-.25,0Z"/><path class="cls-3" d="M24.14,39.11l-.17.21a1.82,1.82,0,0,0-.38.45h0l-.31-.34a1.91,1.91,0,0,0-.41-.26h0v0h0s0,0,.05,0l.18,0h.57l0-.1c0-.08,0-.17,0-.25a1.64,1.64,0,0,1,0-.23,1.85,1.85,0,0,1,0-.23c0-.16,0-.34,0-.5l.06-.28a.64.64,0,0,1,.13-.33c.08-.09.18-.08.28-.13a.18.18,0,0,1,.09.08,1.52,1.52,0,0,1,0,.37c0,.28,0,.56,0,.85a1.42,1.42,0,0,0,.08.18l.12.27s0,0,0,0A1.48,1.48,0,0,1,24.14,39.11Z"/><path class="cls-3" d="M24.79,38.66a.5.5,0,0,1-.14-.31,1,1,0,0,0,.24,0l.56,0v0a.62.62,0,0,0-.19.07l-.45.2S24.8,38.67,24.79,38.66Z"/><path class="cls-3" d="M19.13,25.25c0-.15,0-.31,0-.46s0-.34,0-.51,0-.55,0-.82,0-.32,0-.49,0-.25,0-.37l0-.38c0-.2.06-.38.07-.59l0-.34a1.34,1.34,0,0,0,0-.2c0-.24,0-.47,0-.72a2.58,2.58,0,0,1,0-.56,2.2,2.2,0,0,1,.64-.72v0a1,1,0,0,1,0,.43c0,.15,0,.32,0,.49l0,.32c0,.21,0,.42,0,.62l0,.28c0,.11,0,.22,0,.33,0,.29,0,.62,0,.92s0,.66,0,1l0,.37c0,.24,0,.48,0,.73l0,.34v.57a3.21,3.21,0,0,1,0,.83c0,.06-.09.1-.13.16l-.16.22-.16.15-.16.31h0c0-.3-.05-.63-.05-.94s0-.38,0-.56S19.13,25.37,19.13,25.25Z"/><path class="cls-3" d="M19.44,27.27a1,1,0,0,1,.3-.39,2.85,2.85,0,0,1,.26-.23,2.26,2.26,0,0,1,1.59-.16l.3.09a2.68,2.68,0,0,1,.9.26,3.9,3.9,0,0,1,.51.4l.13.08c.07.06.16.18.26.18s.25-.2.37-.28a2.65,2.65,0,0,1,.39-.26,5.68,5.68,0,0,1,1.2-.48l.45-.11a2.19,2.19,0,0,0,.27,0h.39a1.4,1.4,0,0,1,.61.27c.07.08.15.16.22.25a.82.82,0,0,1,.27.44h0s-.13,0-.17,0h-1a1,1,0,0,0-.39,0c-.11,0-.27-.07-.37,0h-.12a1,1,0,0,0-.39,0,.27.27,0,0,0-.16,0,1.22,1.22,0,0,0-.43,0h-.15l-.14,0c-.08,0-.19,0-.23.06s0,.09,0,.12a.51.51,0,0,1-.5.55.49.49,0,0,1-.48-.4c0-.07,0-.18-.05-.24a.08.08,0,0,0-.09,0l-.35,0h-.08c-.26,0-.5,0-.78,0a.59.59,0,0,0-.23,0l-.59,0a.56.56,0,0,0-.29,0c-.29,0-.58,0-.87,0a.91.91,0,0,0-.33,0,.49.49,0,0,1-.24,0A.64.64,0,0,1,19.44,27.27Z"/><path class="cls-3" d="M28.34,20.78c0-.15,0-.3,0-.45s0-.17,0-.25,0-.18,0-.18h-.05c0,.32,0,.67,0,1a2.9,2.9,0,0,1-.07.34v.2c0,.06,0,.12,0,.18s-.14,0-.15-.09,0-.2,0-.3,0-.15,0-.22c0-.39,0-.8,0-1.18a1.23,1.23,0,0,1,0-.19l0-.1h-.05v0h0c0,.27,0,.52-.05.8l0,.14h-.05a2,2,0,0,1-.06-.75,1.63,1.63,0,0,0,0-.39.68.68,0,0,0-.06.29,3.05,3.05,0,0,0,0,.43,3.46,3.46,0,0,1,0,.46c-.08.93,0,1.85,0,2.81,0,.19,0,.38,0,.57s0,.34-.05.51,0,.48,0,.73,0,.5,0,.74c0,0,0,.11,0,.11v0h0v0h0a1.72,1.72,0,0,0,0-.46c0-.25,0-.51,0-.78a1.34,1.34,0,0,1,0-.53s0,0,.06,0,.07.11.08.17a3,3,0,0,1,0,.6c0,.17,0,.33,0,.49a4.82,4.82,0,0,0,0,.54,1.27,1.27,0,0,0,0,.28c0,.05,0,.17.1.17,0-.27,0-.58,0-.86s0-.26,0-.39l0-.39a2.34,2.34,0,0,0,0-.26,1.74,1.74,0,0,0-.05-.34,5.15,5.15,0,0,1,0-.56.92.92,0,0,1,0-.29s.06-.06.06-.09h0a.29.29,0,0,1,.11.19,3.53,3.53,0,0,1,0,.65,1.33,1.33,0,0,0,0,.21c0,.18.05.37.05.56a1.85,1.85,0,0,1,0,.23v1c0,.24,0,.5,0,.72,0,0,0,.09,0,.13h.06a1.12,1.12,0,0,0,.05-.49,3.84,3.84,0,0,0,0-.59l-.06-.37c0-.14.05-.26.05-.4s0-.39,0-.58,0-.43,0-.64v-.49l0-.2c0-.1,0-.19,0-.29s0-.34,0-.51,0-.52,0-.79S28.34,21.05,28.34,20.78Zm-.58,2.52s-.1.15-.1.06,0-.12,0-.18,0-.31,0-.47v-.62a1.25,1.25,0,0,1,.05-.48.19.19,0,0,1,.1.12,2.31,2.31,0,0,1,0,.59A3.18,3.18,0,0,1,27.76,23.3Zm0-2.39v0c-.13,0-.15-.12-.08-.23S27.86,20.91,27.8,20.91Zm.25,2h0a1,1,0,0,1,0-.4A1.15,1.15,0,0,1,28,22a.14.14,0,0,1,.11.07C28.2,22.15,28.2,22.93,28.05,22.92Z"/><path class="cls-3" d="M27.31,22.53a2.64,2.64,0,0,0,0-.29c0-.41,0-.84,0-1.23,0-.13,0-.25,0-.38,0-.31,0-.61,0-.91,0-.1,0-.19-.05-.28a1.29,1.29,0,0,1,0-.34s0-.15,0-.15a.74.74,0,0,0-.26,0l-.33,0c-.12,0-.28,0-.41.05a5.58,5.58,0,0,0-1.69.48,1.18,1.18,0,0,0-.37.26.66.66,0,0,0-.09.32,8.18,8.18,0,0,0,0,.88l0,.46c0,.22,0,.45,0,.67l0,.26c0,.21,0,.44,0,.64s0,.63,0,.93,0,.6,0,.9a2,2,0,0,1,0,.25.78.78,0,0,1,0,.14c0,.14,0,.28,0,.43a3.11,3.11,0,0,0,.15,1.24s.06.08.06.05a5.24,5.24,0,0,0,.51-.3c.15-.09.31-.14.46-.22a1,1,0,0,1,.52-.16A1,1,0,0,1,26,26.1l.11,0h.1a1.37,1.37,0,0,1,.75,0l.26.06a5.08,5.08,0,0,0,0-.78l0-.43c0-.17,0-.35,0-.52a2.46,2.46,0,0,0,0-.26c0-.21,0-.41,0-.6s0-.25,0-.37S27.32,22.76,27.31,22.53Zm-3,.61a4.66,4.66,0,0,1,1.39-.74,1.46,1.46,0,0,1,.51-.17.46.46,0,0,1,.27-.11v0c.1,0,.17.06.17.16a.23.23,0,0,1-.11.22,2.48,2.48,0,0,1-.48.17l-.56.18c-.13,0-.26.07-.38.12a3.87,3.87,0,0,0-.64.33c-.08,0-.15.11-.24.11a.08.08,0,0,1-.07,0C24.07,23.3,24.24,23.18,24.28,23.14Zm2.28,1.34a1.72,1.72,0,0,1-.46.11l-.43.1a4.57,4.57,0,0,0-1.3.56c-.06,0-.19.16-.24.07s.06-.14.1-.18a3.48,3.48,0,0,1,.51-.34,3.13,3.13,0,0,1,.6-.32l.21-.11c.26-.1.54-.17.81-.26a.51.51,0,0,1,.22,0A.2.2,0,0,1,26.56,24.48Zm0-4a.78.78,0,0,1-.23.08l-.55.17a6.83,6.83,0,0,0-.75.29l-.5.29s-.26.14-.26.07h0c0-.17.22-.29.36-.37l.19-.13c.17-.11.35-.21.52-.3s.39-.13.59-.2l.19-.08.27-.1a.71.71,0,0,1,.21,0C26.73,20.26,26.67,20.42,26.59,20.48Z"/><path class="cls-3" d="M23.56,20.35a1.26,1.26,0,0,0-.13-.68,1.91,1.91,0,0,0-1-.61l-.29-.1-.34-.07a3.63,3.63,0,0,0-.56-.09h-.79c-.07,0-.2,0-.25.1a1.48,1.48,0,0,0,0,.48c0,.45,0,.89,0,1.34,0,.27,0,.54,0,.8s0,.45,0,.67.06.31.05.48c0,.33,0,.69,0,1l0,.42c0,.29,0,.56,0,.85l0,.43c0,.13,0,.25,0,.37s0,.29,0,.44h.18a.27.27,0,0,1,.16,0,.41.41,0,0,1,.16,0h.12a2,2,0,0,1,.73,0c.21,0,.39,0,.59.07a3.07,3.07,0,0,1,.78.3c.07,0,.47.35.51.35h0a1.44,1.44,0,0,0,.12-.56c0-.24,0-.48.05-.75s0-.76,0-1.14c0-.17,0-.33,0-.49,0-.47,0-.93,0-1.39C23.57,21.83,23.62,21.07,23.56,20.35Zm-.59,5a6.63,6.63,0,0,0-.88-.33,1.94,1.94,0,0,0-.33-.07l-.49-.11a5.17,5.17,0,0,1-.55-.07l-.06,0c-.15-.09-.15-.37.06-.37v0a2,2,0,0,1,.35.06l.35.07.3.1c.29.1.55.2.83.32l.19.07a1.8,1.8,0,0,1,.5.37c0,.05.11.08.11.15S23.08,25.36,23,25.31Zm.39-1.79H23.3c-.11,0-.57-.37-.71-.43s-.33-.14-.5-.21a3.26,3.26,0,0,0-.71-.22l-.29,0c-.13,0-.34,0-.44-.05a.22.22,0,0,1,.12-.36v0a4.64,4.64,0,0,1,1.93.71,2,2,0,0,1,.65.51S23.39,23.52,23.36,23.52Zm.06-2s-.08,0-.11,0-.17-.11-.26-.16l-.28-.16a8.35,8.35,0,0,0-1.64-.56,2.61,2.61,0,0,1-.5-.12.19.19,0,0,1,0-.31,2.21,2.21,0,0,1,.64.14l.19,0c.14,0,.27.1.4.15l.35.12.17.09.47.22C22.93,21,23.48,21.35,23.42,21.48Z"/><path class="cls-4" d="M22.54,6c-.25,0-.5.07-.75.09a3.4,3.4,0,0,1-.65.08l-1.53.3a10.94,10.94,0,0,0-2,.71A21.19,21.19,0,0,0,14.07,9,12.93,12.93,0,0,0,12,10.64l.9.07c.72,0,1.48,0,2.19,0l1.33.07a1.65,1.65,0,0,1,.67,0c.61,0,1.18,0,1.76,0a3.13,3.13,0,0,1,1.1,0h2.94l3.29.07,6.07-.08a2,2,0,0,1,.55,0l1,0,.55,0c.34,0,.72.05,1.1,0,.08,0,.31,0,.39,0,.25,0-.2-.36-.28-.44a3.91,3.91,0,0,0-.84-.69l-.54-.43-1.11-.74A16.71,16.71,0,0,0,25.67,6L24.42,6Z"/><path class="cls-4" d="M11,11.55l-.88.88c-.52.7-1,1.41-1.57,2.11a19.92,19.92,0,0,0-2.24,5.93,9.1,9.1,0,0,0-.1,1.05,22.81,22.81,0,0,0,.06,5.54c.08.29.16.58.23.86a10.11,10.11,0,0,0,.31,1.37l.45,1.1A10.68,10.68,0,0,0,8,31.92a19.67,19.67,0,0,0,2.17,3.39c.13.16.44.6.67.6v0a5.53,5.53,0,0,0,0-1.73c0-.68,0-1.36,0-2s0-1.24,0-1.87c.06-1.35,0-2.75,0-4.12,0-1.15.07-2.34.07-3.52s-.07-2.33,0-3.4l0-.36v-1l.06-1.4c0-1,0-2-.06-3.06C10.93,12.63,11,11.93,11,11.55Z"/><path class="cls-4" d="M36.82,11.66c0,.69.06,1.76,0,2.48,0,1.57,0,3.12,0,4.74,0,2.65,0,5.05,0,7.6,0,1.43-.07,2.86,0,4.31,0,.59,0,1.18,0,1.76a14.66,14.66,0,0,1-.1,3.25c0,.06-.15.53,0,.53.37,0,2.07-2.45,2.3-2.85s.35-.62.52-.93.19-.43.28-.64A12.79,12.79,0,0,0,40.72,30a22.38,22.38,0,0,0,.94-4.26,14.34,14.34,0,0,0,.05-1.48c0-.28,0-.55,0-.82a17.34,17.34,0,0,0-.58-4.33,18.39,18.39,0,0,0-1.6-3.7c-.22-.4-.5-.78-.75-1.17S37.05,11.49,36.82,11.66Z"/><path class="cls-4" d="M34.47,38.19c-1,.76-3.09.84-4.42,1l-1,.13c-1.66.08-3.84.23-4.43,1.93-.07.19-.06.23-.12.41s.74,0,1.09,0a1,1,0,0,1,.39,0l.24,0a1.6,1.6,0,0,1,.74-.12,1.41,1.41,0,0,1,.59-.08,2.75,2.75,0,0,1,1-.2L30,40.71a15.09,15.09,0,0,0,3.87-2A2.12,2.12,0,0,0,34.47,38.19Z"/><path class="cls-4" d="M13.83,38.53c.3.35.72.43,1.08.68.21.15.52.31.72.47a18.82,18.82,0,0,0,2.23,1,20.37,20.37,0,0,0,2.76.76c.32.06,2.56.47,2.64.26s-.59-1.17-.85-1.39a4.75,4.75,0,0,0-.78-.47,4.42,4.42,0,0,0-.82-.29c-.36-.1-.72-.21-1.1-.28s-.74-.07-1.14-.1l-1-.17c-.44-.06-.88,0-1.32-.11C15.42,38.76,14.66,38.58,13.83,38.53Z"/><path class="cls-2" d="M66.72,10.73H65v8.65a2.58,2.58,0,0,0,.25,1.37,1.14,1.14,0,0,0,1,.35v.33h-4V21.1a1.13,1.13,0,0,0,1-.4,2.67,2.67,0,0,0,.26-1.38V10.73H61.89a3,3,0,0,0-1.7.38,1.59,1.59,0,0,0-.6,1.23h-.33V9.76h.33a2.47,2.47,0,0,0,1.69.43h5.9A2.78,2.78,0,0,0,69,9.76h.35v2.58h-.22a1.92,1.92,0,0,0-.75-1.27A3.15,3.15,0,0,0,66.72,10.73Z"/><path class="cls-2" d="M79.57,19.32V16.05H73.45v3.27a2.49,2.49,0,0,0,.28,1.39,1.18,1.18,0,0,0,1,.39v.33H70.69V21.1a1.11,1.11,0,0,0,1-.4A2.56,2.56,0,0,0,72,19.32v-7a2.63,2.63,0,0,0-.27-1.42,1.17,1.17,0,0,0-1-.38v-.32h4.06v.32a1.17,1.17,0,0,0-1,.41,2.5,2.5,0,0,0-.28,1.38v3.21h6.12V12.3a2.7,2.7,0,0,0-.26-1.41,1.15,1.15,0,0,0-1-.38v-.32h4v.32a1.13,1.13,0,0,0-1,.4,2.59,2.59,0,0,0-.27,1.4v7a2.55,2.55,0,0,0,.27,1.39,1.16,1.16,0,0,0,1,.39v.33h-4V21.1a1.12,1.12,0,0,0,1-.39A2.71,2.71,0,0,0,79.57,19.32Z"/><path class="cls-2" d="M91.12,14.44h.33v2.73h-.33a1.61,1.61,0,0,0-.44-.9,2.3,2.3,0,0,0-1.13-.18H86.76v4a.79.79,0,0,0,.18.59,1,1,0,0,0,.64.17h2A6.58,6.58,0,0,0,91,20.77a1.4,1.4,0,0,0,.68-.43,3.91,3.91,0,0,0,.6-1h.33l-.52,2.1H84V21.1a1.13,1.13,0,0,0,1-.39,2.61,2.61,0,0,0,.26-1.37v-7A2.59,2.59,0,0,0,85,10.9a1.13,1.13,0,0,0-1-.39v-.32h8.09v1.88h-.21A1.87,1.87,0,0,0,91.39,11,2.37,2.37,0,0,0,90,10.73H86.76v4.81H89.9a1.24,1.24,0,0,0,.88-.23A1.63,1.63,0,0,0,91.12,14.44Z"/><path class="cls-2" d="M107.13,19.07V12.3a2.54,2.54,0,0,0-.27-1.37,1.09,1.09,0,0,0-.93-.42v-.32h4v.32a1.13,1.13,0,0,0-1,.4,2.57,2.57,0,0,0-.28,1.4v7a2.45,2.45,0,0,0,.28,1.38,1.11,1.11,0,0,0,1,.4v.33h-2.77V19.86a4.82,4.82,0,0,1-3.75,1.85,3.69,3.69,0,0,1-2.8-1.07,3.88,3.88,0,0,1-1-2.81V12.3a2.57,2.57,0,0,0-.27-1.39,1.11,1.11,0,0,0-1-.4v-.32h4.06v.32a1.16,1.16,0,0,0-1,.39,2.53,2.53,0,0,0-.27,1.39V18a3,3,0,0,0,.76,2.17,2.77,2.77,0,0,0,2.11.79A3.68,3.68,0,0,0,107.13,19.07Z"/><path class="cls-2" d="M120,10.51v-.32h3.4v.32a1.41,1.41,0,0,0-1.14.39,2.24,2.24,0,0,0-.31,1.39v9.14h-.35l-8-9.78v7.9a1.68,1.68,0,0,0,.34,1.19,1.5,1.5,0,0,0,1.13.36v.33h-3.41V21.1a1.27,1.27,0,0,0,1.11-.42,2.91,2.91,0,0,0,.28-1.51V12.59a2.38,2.38,0,0,0-.39-1.53,1.8,1.8,0,0,0-1.27-.55v-.32h2.88l7.06,8.75V12.36a2.54,2.54,0,0,0-.29-1.44A1.24,1.24,0,0,0,120,10.51Z"/><path class="cls-2" d="M129,10.19v.32a1.13,1.13,0,0,0-1,.4,2.59,2.59,0,0,0-.27,1.4v7a2.55,2.55,0,0,0,.27,1.39,1.16,1.16,0,0,0,1,.39v.33h-4V21.1a1.13,1.13,0,0,0,1-.38,2.59,2.59,0,0,0,.27-1.4v-7a2.75,2.75,0,0,0-.26-1.42,1.18,1.18,0,0,0-1-.38v-.32Z"/><path class="cls-2" d="M141.42,10.19v.34q-1.23,0-2,2.19l-3.32,8.86h-.31l-3.49-9.12a4.65,4.65,0,0,0-.84-1.6,1.56,1.56,0,0,0-1-.35v-.32h4.09v.32c-.66,0-1,.25-1,.76a1.41,1.41,0,0,0,.13.56l2.75,7.26,2.61-7a2.25,2.25,0,0,0,.16-.77c0-.53-.33-.8-1-.8v-.32Z"/><path class="cls-2" d="M149.66,14.44H150v2.73h-.34a1.61,1.61,0,0,0-.44-.9,2.27,2.27,0,0,0-1.13-.18H145.3v4a.75.75,0,0,0,.19.59.94.94,0,0,0,.64.17h2a6.69,6.69,0,0,0,1.46-.11,1.49,1.49,0,0,0,.68-.43,4.25,4.25,0,0,0,.59-1h.34l-.52,2.1h-8.1V21.1a1.15,1.15,0,0,0,1-.39,2.62,2.62,0,0,0,.25-1.37v-7a2.6,2.6,0,0,0-.26-1.41,1.15,1.15,0,0,0-1-.39v-.32h8.1v1.88h-.21a1.87,1.87,0,0,0-.5-1.07,2.35,2.35,0,0,0-1.39-.27H145.3v4.81h3.14a1.24,1.24,0,0,0,.88-.23A1.55,1.55,0,0,0,149.66,14.44Z"/><path class="cls-2" d="M156.29,16.22h-.91v3.1a2.58,2.58,0,0,0,.28,1.39,1.18,1.18,0,0,0,1,.39v.33h-4V21.1a1.13,1.13,0,0,0,1-.39,2.6,2.6,0,0,0,.27-1.39v-7a2.62,2.62,0,0,0-.26-1.38,1.17,1.17,0,0,0-1-.38v-.32h4.61A4.16,4.16,0,0,1,160,11a2.59,2.59,0,0,1,1,2.11,2.76,2.76,0,0,1-2.32,2.76,4.54,4.54,0,0,1,1,.9,14,14,0,0,1,1.28,1.89,9.7,9.7,0,0,0,1.37,1.93,1.72,1.72,0,0,0,1,.49v.33H161a21.24,21.24,0,0,1-1.72-2.51,9.47,9.47,0,0,0-1.68-2.22A2.15,2.15,0,0,0,156.29,16.22Zm.27-5.6h-1.18v5.14h1.38a2.61,2.61,0,0,0,1.94-.71,2.57,2.57,0,0,0,.71-1.88,2.38,2.38,0,0,0-.78-1.85A3,3,0,0,0,156.56,10.62Z"/><path class="cls-2" d="M170,10h.32v2.64H170a2.6,2.6,0,0,0-.79-1.71,2.43,2.43,0,0,0-1.7-.61,2.21,2.21,0,0,0-1.47.46,1.52,1.52,0,0,0-.55,1.23,2,2,0,0,0,.46,1.29,7.93,7.93,0,0,0,2,1.51,8.74,8.74,0,0,1,2.4,1.85,2.92,2.92,0,0,1,.61,1.83,3.21,3.21,0,0,1-3.2,3.2,5.91,5.91,0,0,1-1.95-.43,2.79,2.79,0,0,0-.62-.17c-.19,0-.33.15-.43.43h-.34v-3h.34a2.7,2.7,0,0,0,2.71,2.77,2.41,2.41,0,0,0,1.64-.55,1.86,1.86,0,0,0,.61-1.46,2.06,2.06,0,0,0-.5-1.3,8.82,8.82,0,0,0-2.12-1.61,9.77,9.77,0,0,1-1.76-1.28,3.25,3.25,0,0,1-.65-1,3.55,3.55,0,0,1-.21-1.24,2.76,2.76,0,0,1,.85-2.1,3.09,3.09,0,0,1,2.21-.8,5.09,5.09,0,0,1,1.63.3,2.08,2.08,0,0,0,.57.13.22.22,0,0,0,.18-.06A.65.65,0,0,0,170,10Z"/><path class="cls-2" d="M176.84,10.19v.32a1.13,1.13,0,0,0-1,.4,2.59,2.59,0,0,0-.27,1.4v7a2.55,2.55,0,0,0,.27,1.39,1.16,1.16,0,0,0,1,.39v.33h-4V21.1a1.13,1.13,0,0,0,1-.38,2.59,2.59,0,0,0,.27-1.4v-7a2.75,2.75,0,0,0-.26-1.42,1.16,1.16,0,0,0-1-.38v-.32Z"/><path class="cls-2" d="M185.77,10.73h-1.7v8.65a2.58,2.58,0,0,0,.25,1.37,1.12,1.12,0,0,0,1,.35v.33h-4V21.1a1.13,1.13,0,0,0,1-.4,2.78,2.78,0,0,0,.26-1.38V10.73H181a3,3,0,0,0-1.7.38,1.59,1.59,0,0,0-.6,1.23h-.33V9.76h.33a2.46,2.46,0,0,0,1.69.43h5.89A2.81,2.81,0,0,0,188,9.76h.35v2.58h-.22a1.92,1.92,0,0,0-.75-1.27A3.17,3.17,0,0,0,185.77,10.73Z"/><path class="cls-2" d="M197.84,11.79l-2.53,4v3.55a2.57,2.57,0,0,0,.27,1.4,1.08,1.08,0,0,0,1,.38v.33h-4.1V21.1a1.28,1.28,0,0,0,1.11-.4,2.6,2.6,0,0,0,.27-1.38V15.77l-2.4-3.72a4.94,4.94,0,0,0-1-1.22,1.77,1.77,0,0,0-1-.32v-.32h4.4v.32c-.77,0-1.16.18-1.16.53a1.17,1.17,0,0,0,.23.59L195.12,15l1.78-2.82a2.22,2.22,0,0,0,.4-1.09c0-.41-.25-.62-.75-.62v-.32h3.09v.32a1.92,1.92,0,0,0-1,.28A3.75,3.75,0,0,0,197.84,11.79Z"/><path class="cls-2" d="M63.3,30.08a1.79,1.79,0,0,1,1.38.66,2.24,2.24,0,0,1,.6,1.55,5.14,5.14,0,0,1-1.18,3.12A3.45,3.45,0,0,1,61.3,37a1.87,1.87,0,0,1-1.47-.64,2.39,2.39,0,0,1-.57-1.64,4.72,4.72,0,0,1,1.26-3.18A3.69,3.69,0,0,1,63.3,30.08ZM61.73,36.4a2,2,0,0,0,1.67-1.19,5.18,5.18,0,0,0,.73-2.81,1.94,1.94,0,0,0-.39-1.24,1.14,1.14,0,0,0-1-.51,2,2,0,0,0-1.65,1.18,5.14,5.14,0,0,0-.73,2.77,2.19,2.19,0,0,0,.36,1.31A1.15,1.15,0,0,0,61.73,36.4Z"/><path class="cls-2" d="M70.12,30.29l-.07.54H68.69l-1.1,5.73a14,14,0,0,1-1,3.37,4,4,0,0,1-1.47,1.64,3.88,3.88,0,0,1-2,.58,4.25,4.25,0,0,1-2.28-.53l.3-1.37h.33a1.63,1.63,0,0,0,1.71,1.5A2.59,2.59,0,0,0,65.05,41c.54-.51,1-1.68,1.32-3.53l1.24-6.63H66.24l.05-.54h1.39l.48-2.38a4.55,4.55,0,0,1,1.25-2.61,3.14,3.14,0,0,1,2.07-.72,4.13,4.13,0,0,1,1.34.26l.06-.24h.39l-.37,1.77h-.4c-.08-.93-.49-1.4-1.23-1.4q-1.42,0-1.92,2.4l-.62,2.92Z"/><path class="cls-2" d="M83.65,29.76H84v2.73h-.34a1.64,1.64,0,0,0-.44-.9,2.27,2.27,0,0,0-1.13-.18H79.29v4a.75.75,0,0,0,.19.59.91.91,0,0,0,.64.17h2a6.1,6.1,0,0,0,1.46-.11,1.44,1.44,0,0,0,.68-.43,4.25,4.25,0,0,0,.59-1h.34l-.52,2.1h-8.1v-.33a1.16,1.16,0,0,0,1-.38,2.67,2.67,0,0,0,.26-1.38v-7a2.59,2.59,0,0,0-.27-1.41,1.15,1.15,0,0,0-1-.39v-.32h8.1v1.88h-.21a1.93,1.93,0,0,0-.49-1.07,2.41,2.41,0,0,0-1.4-.27H79.29v4.82h3.15a1.26,1.26,0,0,0,.87-.23A1.62,1.62,0,0,0,83.65,29.76Z"/><path class="cls-2" d="M86.72,36.75v-.33a1.12,1.12,0,0,0,1-.39A2.51,2.51,0,0,0,88,34.64v-7a2.51,2.51,0,0,0-.28-1.4,1.1,1.1,0,0,0-1-.4v-.32h5.19a6.42,6.42,0,0,1,4.62,1.64,5.49,5.49,0,0,1,1.72,4.17,5,5,0,0,1-1.63,4,6.54,6.54,0,0,1-4.56,1.48Zm4.89-10.81H89.48v8.3a3.31,3.31,0,0,0,.28,1.64,1.31,1.31,0,0,0,1.15.44h1.16A4.14,4.14,0,0,0,95.33,35a5.31,5.31,0,0,0,1.19-3.65,5.69,5.69,0,0,0-1.3-3.92A4.56,4.56,0,0,0,91.61,25.94Z"/><path class="cls-2" d="M103.79,25.51v.32a1.12,1.12,0,0,0-1,.4,2.51,2.51,0,0,0-.28,1.4v7a2.51,2.51,0,0,0,.28,1.4,1.17,1.17,0,0,0,1,.38v.33H99.74v-.33a1.15,1.15,0,0,0,1-.38,2.59,2.59,0,0,0,.27-1.4v-7a2.65,2.65,0,0,0-.27-1.42,1.15,1.15,0,0,0-1-.38v-.32Z"/><path class="cls-2" d="M113.77,25.83v-.32h3.4v.32a1.38,1.38,0,0,0-1.13.39,2.25,2.25,0,0,0-.32,1.39v9.14h-.34l-8-9.78v7.9a1.68,1.68,0,0,0,.34,1.19,1.53,1.53,0,0,0,1.14.36v.33h-3.42v-.33a1.26,1.26,0,0,0,1.11-.42,2.89,2.89,0,0,0,.28-1.5V27.92a2.45,2.45,0,0,0-.38-1.53,1.85,1.85,0,0,0-1.28-.56v-.32h2.88l7.06,8.75V27.68a2.54,2.54,0,0,0-.29-1.44A1.24,1.24,0,0,0,113.77,25.83Z"/><path class="cls-2" d="M123.59,36.75h-5.18v-.33a1.18,1.18,0,0,0,1-.38,2.62,2.62,0,0,0,.27-1.4v-7a2.6,2.6,0,0,0-.26-1.41,1.14,1.14,0,0,0-1-.39v-.32h4.24a4.84,4.84,0,0,1,2.87.75,2.32,2.32,0,0,1,1,2c0,1.2-.75,2.05-2.26,2.54v.05A3.74,3.74,0,0,1,126.4,32a2.88,2.88,0,0,1,.81,2,2.38,2.38,0,0,1-1,2A4.22,4.22,0,0,1,123.59,36.75Zm-2.42-10.81V30.7h1.16a2.79,2.79,0,0,0,1.94-.64,2.16,2.16,0,0,0,.72-1.72,2.25,2.25,0,0,0-.7-1.77,2.91,2.91,0,0,0-2-.63Zm1.07,5.19h-1.07v3.3a3.16,3.16,0,0,0,.24,1.49,1,1,0,0,0,.92.4h.93a2.08,2.08,0,0,0,1.6-.66,2.43,2.43,0,0,0,.62-1.76,2.5,2.5,0,0,0-.89-2A3.53,3.53,0,0,0,122.24,31.13Z"/><path class="cls-2" d="M137.22,34.39V27.63a2.67,2.67,0,0,0-.26-1.38,1.12,1.12,0,0,0-.94-.42v-.32h4v.32a1.13,1.13,0,0,0-1,.4,2.6,2.6,0,0,0-.28,1.4v7A2.51,2.51,0,0,0,139,36a1.13,1.13,0,0,0,1,.39v.33h-2.77V35.18A4.8,4.8,0,0,1,133.47,37a3.69,3.69,0,0,1-2.8-1.07,3.87,3.87,0,0,1-1-2.8V27.63a2.59,2.59,0,0,0-.27-1.4,1.11,1.11,0,0,0-1-.4v-.32h4.07v.32a1.17,1.17,0,0,0-1,.39,2.55,2.55,0,0,0-.27,1.39V33.3a3,3,0,0,0,.76,2.17,2.77,2.77,0,0,0,2.11.79A3.68,3.68,0,0,0,137.22,34.39Z"/><path class="cls-2" d="M145.32,31.55h-.91v3.09a2.58,2.58,0,0,0,.28,1.39,1.18,1.18,0,0,0,1,.39v.33h-4v-.33a1.13,1.13,0,0,0,1-.39,2.6,2.6,0,0,0,.27-1.39v-7a2.65,2.65,0,0,0-.26-1.38,1.16,1.16,0,0,0-1-.38v-.32h4.61a4.16,4.16,0,0,1,2.73.83,2.59,2.59,0,0,1,1,2.11,2.76,2.76,0,0,1-2.32,2.76,4.54,4.54,0,0,1,1,.9A14.7,14.7,0,0,1,150,34a9.63,9.63,0,0,0,1.38,1.93,1.68,1.68,0,0,0,1,.49v.33h-2.3a20.42,20.42,0,0,1-1.72-2.51A9.58,9.58,0,0,0,146.67,32,2.15,2.15,0,0,0,145.32,31.55Zm.27-5.61h-1.18v5.14h1.38a2.61,2.61,0,0,0,1.94-.71,2.57,2.57,0,0,0,.71-1.88,2.38,2.38,0,0,0-.78-1.85A3,3,0,0,0,145.59,25.94Z"/><path class="cls-2" d="M163.54,31.88v.33a1.4,1.4,0,0,0-1.07.34,1.71,1.71,0,0,0-.32,1.17v3a10.08,10.08,0,0,1-1.47.19C160,37,159.4,37,159,37a7.07,7.07,0,0,1-4.86-1.54,5.12,5.12,0,0,1-1.74-4,6.62,6.62,0,0,1,.76-3.16,5.81,5.81,0,0,1,2.13-2.24,5.52,5.52,0,0,1,2.9-.82,6.9,6.9,0,0,1,2,.33,4.27,4.27,0,0,0,1.06.2.61.61,0,0,0,.63-.38h.35V28.7h-.31a3.29,3.29,0,0,0-1.25-2.21,3.93,3.93,0,0,0-2.48-.83,3.59,3.59,0,0,0-2.92,1.42,5.72,5.72,0,0,0-1.14,3.68,6.34,6.34,0,0,0,1.31,4.1,4.09,4.09,0,0,0,3.32,1.63c1.25,0,1.88-.4,1.88-1.2V34.07a2.83,2.83,0,0,0-.27-1.45,1,1,0,0,0-1-.41H159v-.33Z"/><path class="cls-2" d="M173.34,34.64V31.37h-6.12v3.27A2.49,2.49,0,0,0,167.5,36a1.18,1.18,0,0,0,1,.39v.33h-4.06v-.33a1.15,1.15,0,0,0,1-.39,2.74,2.74,0,0,0,.26-1.39v-7a2.65,2.65,0,0,0-.27-1.42,1.17,1.17,0,0,0-1-.38v-.32h4.06v.32a1.17,1.17,0,0,0-1,.41,2.51,2.51,0,0,0-.28,1.39v3.2h6.12v-3.2a2.65,2.65,0,0,0-.26-1.42,1.15,1.15,0,0,0-1-.38v-.32h4v.32a1.1,1.1,0,0,0-1,.4,2.51,2.51,0,0,0-.28,1.4v7a2.51,2.51,0,0,0,.28,1.4,1.15,1.15,0,0,0,1,.38v.33h-4v-.33a1.11,1.11,0,0,0,1-.39A2.69,2.69,0,0,0,173.34,34.64Z"/></svg>